<svg width="118" height="118" viewBox="0 0 118 118" fill="none" xmlns="http://www.w3.org/2000/svg">
<g filter="url(#filter0_d_85:324)">
<path d="M54.1451 59.7902C54.1451 62.2888 52.3326 63.0786 50.1058 63.0786H44.267V56.2299H50.2223C52.6304 56.2429 54.1451 57.2397 54.1451 59.7902ZM53.1482 49.1353C53.1482 46.8438 51.3746 46.3 49.4067 46.3H44.2799V52.1H49.808C51.7629 52.1 53.1482 51.2455 53.1482 49.1353ZM70.2763 52.1388C67.9071 52.1388 66.3277 53.6147 66.1723 55.9839H74.225C74.0049 53.5888 72.7621 52.1388 70.2763 52.1388ZM88 32.2143V77.7857C88 81.2165 85.2165 84 81.7857 84H36.2143C32.7835 84 30 81.2165 30 77.7857V32.2143C30 28.7835 32.7835 26 36.2143 26H81.7857C85.2165 26 88 28.7835 88 32.2143ZM65.1754 45.808H75.2478V43.3612H65.1754V45.808ZM59.6085 60.0879C59.6085 56.9679 58.1326 54.275 55.0772 53.4076C57.304 52.346 58.4692 51.1161 58.4692 48.6174C58.4692 43.6719 54.7795 42.4679 50.5201 42.4679H38.8036V67.325H50.8567C55.375 67.2991 59.6085 65.1371 59.6085 60.0879ZM79.1964 58.1719C79.1964 52.8509 76.0763 48.4103 70.4446 48.4103C64.9554 48.4103 61.2397 52.5272 61.2397 57.9388C61.2397 63.5446 64.7741 67.3897 70.4446 67.3897C74.7429 67.3897 77.5263 65.4607 78.8728 61.3308H74.5098C74.0308 62.8714 72.1018 63.6741 70.6 63.6741C67.7 63.6741 66.1853 61.9781 66.1853 59.104H79.1576C79.1705 58.8063 79.1964 58.4826 79.1964 58.1719Z" fill="white"/>
</g>
<defs>
<filter id="filter0_d_85:324" x="0" y="0" width="118" height="118" filterUnits="userSpaceOnUse" color-interpolation-filters="sRGB">
<feFlood flood-opacity="0" result="BackgroundImageFix"/>
<feColorMatrix in="SourceAlpha" type="matrix" values="0 0 0 0 0 0 0 0 0 0 0 0 0 0 0 0 0 0 127 0" result="hardAlpha"/>
<feOffset dy="4"/>
<feGaussianBlur stdDeviation="15"/>
<feComposite in2="hardAlpha" operator="out"/>
<feColorMatrix type="matrix" values="0 0 0 0 0.560784 0 0 0 0 0.756863 0 0 0 0 0.890196 0 0 0 1 0"/>
<feBlend mode="normal" in2="BackgroundImageFix" result="effect1_dropShadow_85:324"/>
<feBlend mode="normal" in="SourceGraphic" in2="effect1_dropShadow_85:324" result="shape"/>
</filter>
</defs>
</svg>
