<svg width="46" height="49" viewBox="0 0 46 49" fill="none" xmlns="http://www.w3.org/2000/svg">
<path d="M19.5237 28.3653C19.5237 30.4084 18.1126 31.0541 16.3789 31.0541H11.8329V25.4542H16.4696C18.3444 25.4648 19.5237 26.2799 19.5237 28.3653V28.3653ZM18.7476 19.6532C18.7476 17.7795 17.3667 17.3349 15.8346 17.3349H11.843V22.0773H16.147C17.6691 22.0773 18.7476 21.3787 18.7476 19.6532V19.6532ZM32.083 22.1091C30.2385 22.1091 29.0087 23.3159 28.8878 25.2531H35.1573C34.986 23.2947 34.0183 22.1091 32.083 22.1091ZM45.8821 5.81752V43.0796C45.8821 45.8848 43.715 48.1608 41.0439 48.1608H5.56335C2.89223 48.1608 0.725098 45.8848 0.725098 43.0796V5.81752C0.725098 3.01228 2.89223 0.736328 5.56335 0.736328H41.0439C43.715 0.736328 45.8821 3.01228 45.8821 5.81752ZM28.1116 16.9326H35.9536V14.9319H28.1116V16.9326ZM23.7774 28.6088C23.7774 26.0576 22.6283 23.8557 20.2495 23.1465C21.9832 22.2785 22.8904 21.2728 22.8904 19.2297C22.8904 15.186 20.0176 14.2015 16.7014 14.2015H7.57929V34.5262H16.9635C20.4813 34.5051 23.7774 32.7372 23.7774 28.6088V28.6088ZM39.0279 27.0421C39.0279 22.6913 36.5987 19.0604 32.2141 19.0604C27.9403 19.0604 25.0474 22.4267 25.0474 26.8515C25.0474 31.4352 27.7992 34.5792 32.2141 34.5792C35.5605 34.5792 37.7277 33.0019 38.776 29.625H35.3791C35.0061 30.8847 33.5043 31.541 32.335 31.541C30.0772 31.541 28.8979 30.1543 28.8979 27.8043H38.9977C39.0078 27.5608 39.0279 27.2961 39.0279 27.0421Z" fill="#8FC1E3"/>
</svg>
