<svg width="819" height="719" viewBox="0 0 819 719" fill="none" xmlns="http://www.w3.org/2000/svg">
<path opacity="0.05" fill-rule="evenodd" clip-rule="evenodd" d="M103.629 291.281H89.625C83.6825 291.281 77.9834 293.642 73.7814 297.844C69.5794 302.046 67.2188 307.745 67.2188 313.688V336.094C67.2188 342.036 69.5794 347.735 73.7814 351.937C77.9834 356.139 83.6825 358.5 89.625 358.5H111.947C111.752 418.931 104.257 479.117 89.625 537.75H268.875C254.243 479.117 246.748 418.931 246.553 358.5H268.875C274.818 358.5 280.517 356.139 284.719 351.937C288.921 347.735 291.281 342.036 291.281 336.094V313.688C291.281 307.745 288.921 302.046 284.719 297.844C280.517 293.642 274.818 291.281 268.875 291.281H254.871L302.33 164.714C303.603 161.322 304.034 157.672 303.586 154.076C303.139 150.481 301.826 147.048 299.761 144.071C297.696 141.095 294.94 138.663 291.729 136.985C288.517 135.307 284.947 134.433 281.324 134.438H201.656V89.625H235.266C238.237 89.625 241.086 88.4447 243.187 86.3437C245.288 84.2427 246.469 81.3931 246.469 78.4219V56.0156C246.469 53.0444 245.288 50.1948 243.187 48.0938C241.086 45.9928 238.237 44.8125 235.266 44.8125H201.656V11.2031C201.656 8.23187 200.476 5.38231 198.375 3.28132C196.274 1.18033 193.424 0 190.453 0H168.047C165.076 0 162.226 1.18033 160.125 3.28132C158.024 5.38231 156.844 8.23187 156.844 11.2031V44.8125H123.234C120.263 44.8125 117.414 45.9928 115.313 48.0938C113.212 50.1948 112.031 53.0444 112.031 56.0156V78.4219C112.031 81.3931 113.212 84.2427 115.313 86.3437C117.414 88.4447 120.263 89.625 123.234 89.625H156.844V134.438H77.1475C73.5245 134.433 69.9545 135.307 66.7434 136.985C63.5324 138.663 60.7761 141.095 58.7109 144.071C56.6456 147.048 55.333 150.481 54.8855 154.076C54.438 157.672 54.8691 161.322 56.1417 164.714L103.629 291.281ZM346.121 643.591L313.688 627.375V604.969C313.688 599.026 311.327 593.327 307.125 589.125C302.923 584.923 297.224 582.562 291.281 582.562H67.2188C61.2762 582.562 55.5771 584.923 51.3751 589.125C47.1732 593.327 44.8125 599.026 44.8125 604.969V627.375L12.3935 643.591C8.67041 645.451 5.53889 648.311 3.34989 651.851C1.16089 655.39 0.000921489 659.469 0 663.631V694.594C0 700.536 2.36065 706.235 6.56264 710.437C10.7646 714.639 16.4637 717 22.4062 717H336.094C342.036 717 347.735 714.639 351.937 710.437C356.139 706.235 358.5 700.536 358.5 694.594V663.631C358.5 659.471 357.343 655.393 355.156 651.853C352.97 648.314 349.841 645.453 346.121 643.591Z" fill="black"/>
<g opacity="0.05">
<path fill-rule="evenodd" clip-rule="evenodd" d="M578.035 424.638L573.428 539.75H750.885L746.278 424.624L780.727 395.51C785.705 391.298 789.703 386.051 792.443 380.135C795.184 374.219 796.6 367.776 796.594 361.256V279.277C796.594 277.049 795.708 274.912 794.133 273.336C792.557 271.76 790.42 270.875 788.191 270.875H751.249C749.021 270.875 746.883 271.76 745.308 273.336C743.732 274.912 742.847 277.049 742.847 279.277V315.688H708.243V279.277C708.243 277.049 707.358 274.912 705.782 273.336C704.206 271.76 702.069 270.875 699.841 270.875H624.486C622.257 270.875 620.12 271.76 618.544 273.336C616.969 274.912 616.083 277.049 616.083 279.277V315.688H581.48V279.277C581.48 277.049 580.594 274.912 579.019 273.336C577.443 271.76 575.306 270.875 573.077 270.875H536.121C533.893 270.875 531.755 271.76 530.18 273.336C528.604 274.912 527.719 277.049 527.719 279.277V361.34C527.73 367.849 529.159 374.278 531.906 380.179C534.653 386.08 538.653 391.311 543.627 395.51L578.035 424.638ZM646.313 411.875C642.111 416.077 639.75 421.776 639.75 427.719V472.531H684.562V427.719C684.562 421.776 682.202 416.077 678 411.875C673.798 407.673 668.099 405.312 662.156 405.312C656.214 405.312 650.515 407.673 646.313 411.875Z" fill="black"/>
<path d="M806.621 645.591L774.188 629.375V606.969C774.188 601.026 771.827 595.327 767.625 591.125C763.423 586.923 757.724 584.562 751.781 584.562H572.531C566.589 584.562 560.89 586.923 556.688 591.125C552.486 595.327 550.125 601.026 550.125 606.969V629.375L517.706 645.591C513.983 647.451 510.851 650.311 508.662 653.851C506.473 657.39 505.313 661.469 505.312 665.631V696.594C505.312 702.536 507.673 708.235 511.875 712.437C516.077 716.639 521.776 719 527.719 719H796.594C802.536 719 808.235 716.639 812.437 712.437C816.639 708.235 819 702.536 819 696.594V665.631C819 661.471 817.843 657.393 815.656 653.853C813.47 650.314 810.341 647.453 806.621 645.591Z" fill="black"/>
</g>
</svg>
