<svg width="43" height="33" viewBox="0 0 43 33" fill="none" xmlns="http://www.w3.org/2000/svg">
<path d="M41.6247 10.8969C41.9479 10.6305 42.4286 10.8797 42.4286 11.3008V28.875C42.4286 31.1523 40.6469 33 38.4509 33H3.97768C1.78167 33 0 31.1523 0 28.875V11.3094C0 10.8797 0.472349 10.6391 0.803822 10.9055C2.66007 12.4008 5.12126 14.3 13.5738 20.668C15.3223 21.9914 18.2725 24.7758 21.2143 24.7586C24.1727 24.7844 27.1808 21.9398 28.863 20.668C37.3156 14.3 39.7685 12.3922 41.6247 10.8969ZM21.2143 22C23.1368 22.0344 25.9046 19.4906 27.2968 18.4422C38.2934 10.1664 39.1304 9.44453 41.6662 7.38203C42.1468 6.99531 42.4286 6.39375 42.4286 5.75781V4.125C42.4286 1.84766 40.6469 0 38.4509 0H3.97768C1.78167 0 0 1.84766 0 4.125V5.75781C0 6.39375 0.281752 6.98672 0.762388 7.38203C3.29816 9.43594 4.13513 10.1664 15.1318 18.4422C16.5239 19.4906 19.2917 22.0344 21.2143 22Z" fill="white"/>
</svg>
