<svg width="25" height="29" viewBox="0 0 25 29" fill="none" xmlns="http://www.w3.org/2000/svg">
<path d="M24.6908 4.14287V6.73213C24.6908 9.01396 19.1611 10.875 12.3454 10.875C5.52968 10.875 0 9.01396 0 6.73213V4.14287C0 1.86104 5.52968 0 12.3454 0C19.1611 0 24.6908 1.86104 24.6908 4.14287ZM24.6908 9.96875V15.7946C24.6908 18.0765 19.1611 19.9375 12.3454 19.9375C5.52968 19.9375 0 18.0765 0 15.7946V9.96875C2.65233 11.846 7.50687 12.7199 12.3454 12.7199C17.1839 12.7199 22.0384 11.846 24.6908 9.96875ZM24.6908 19.0312V24.8571C24.6908 27.139 19.1611 29 12.3454 29C5.52968 29 0 27.139 0 24.8571V19.0312C2.65233 20.9085 7.50687 21.7824 12.3454 21.7824C17.1839 21.7824 22.0384 20.9085 24.6908 19.0312Z" fill="#F0DB4F"/>
</svg>
