<svg width="44" height="46" viewBox="0 0 44 46" fill="none" xmlns="http://www.w3.org/2000/svg">
<path d="M29.7027 14.4621C28.4412 6.30324 25.4659 0.574707 22.0035 0.574707C18.5411 0.574707 15.5658 6.30324 14.3043 14.4621H29.7027ZM13.6519 23.233C13.6519 25.2613 13.7563 27.2074 13.939 29.0803H30.0593C30.242 27.2074 30.3464 25.2613 30.3464 23.233C30.3464 21.2047 30.242 19.2587 30.0593 17.3857H13.939C13.7563 19.2587 13.6519 21.2047 13.6519 23.233ZM41.8995 14.4621C39.4114 8.25844 34.3743 3.46182 28.1541 1.52489C30.2768 4.61301 31.7384 9.26344 32.5039 14.4621H41.8995ZM15.8442 1.52489C9.63265 3.46182 4.58688 8.25844 2.10749 14.4621H11.5031C12.2599 9.26344 13.7215 4.61301 15.8442 1.52489ZM42.8304 17.3857H32.8519C33.0346 19.3044 33.139 21.2687 33.139 23.233C33.139 25.1974 33.0346 27.1617 32.8519 29.0803H42.8217C43.3001 27.2074 43.5698 25.2613 43.5698 23.233C43.5698 21.2047 43.3001 19.2587 42.8304 17.3857ZM10.868 23.233C10.868 21.2687 10.9724 19.3044 11.1551 17.3857H1.17663C0.706854 19.2587 0.428467 21.2047 0.428467 23.233C0.428467 25.2613 0.706854 27.2074 1.17663 29.0803H11.1464C10.9724 27.1617 10.868 25.1974 10.868 23.233ZM14.3043 32.004C15.5658 40.1628 18.5411 45.8914 22.0035 45.8914C25.4659 45.8914 28.4412 40.1628 29.7027 32.004H14.3043ZM28.1628 44.9412C34.3743 43.0042 39.4201 38.2076 41.9082 32.004H32.5126C31.7471 37.2026 30.2855 41.8531 28.1628 44.9412ZM2.10749 32.004C4.59558 38.2076 9.63265 43.0042 15.8529 44.9412C13.7302 41.8531 12.2686 37.2026 11.5031 32.004H2.10749Z" fill="#8FC1E3"/>
</svg>
