<svg width="116" height="48" viewBox="0 0 116 48" fill="none" xmlns="http://www.w3.org/2000/svg">
<path d="M7.28 0.0079999C9.056 0.0079999 10.608 0.368 11.936 1.088C13.28 1.808 14.312 2.808 15.032 4.088C15.752 5.368 16.112 6.824 16.112 8.456C16.112 10.072 15.752 11.528 15.032 12.824C14.312 14.12 13.28 15.144 11.936 15.896C10.608 16.632 9.056 17 7.28 17H0.2V0.0079999H7.28ZM6.8 12.248C8 12.248 8.952 11.92 9.656 11.264C10.36 10.608 10.712 9.672 10.712 8.456C10.712 7.24 10.36 6.304 9.656 5.648C8.952 4.992 8 4.664 6.8 4.664H5.528V12.248H6.8ZM17.3159 10.232C17.3159 8.808 17.5559 7.576 18.0359 6.536C18.5319 5.48 19.2039 4.68 20.0519 4.136C20.8999 3.576 21.8519 3.296 22.9079 3.296C23.7879 3.296 24.5479 3.48 25.1879 3.848C25.8279 4.2 26.3159 4.688 26.6519 5.312V3.464H31.9559V17H26.6519V15.152C26.3159 15.776 25.8279 16.272 25.1879 16.64C24.5479 16.992 23.7879 17.168 22.9079 17.168C21.8519 17.168 20.8999 16.896 20.0519 16.352C19.2039 15.792 18.5319 14.992 18.0359 13.952C17.5559 12.896 17.3159 11.656 17.3159 10.232ZM26.6519 10.232C26.6519 9.512 26.4679 8.952 26.0999 8.552C25.7319 8.152 25.2599 7.952 24.6839 7.952C24.1079 7.952 23.6359 8.152 23.2679 8.552C22.8999 8.952 22.7159 9.512 22.7159 10.232C22.7159 10.952 22.8999 11.512 23.2679 11.912C23.6359 12.312 24.1079 12.512 24.6839 12.512C25.2599 12.512 25.7319 12.312 26.0999 11.912C26.4679 11.512 26.6519 10.952 26.6519 10.232ZM43.8284 3.368C45.3804 3.368 46.5884 3.888 47.4524 4.928C48.3324 5.968 48.7724 7.376 48.7724 9.152V17H43.4684V9.824C43.4684 9.184 43.2924 8.68 42.9404 8.312C42.6044 7.928 42.1484 7.736 41.5724 7.736C40.9804 7.736 40.5164 7.928 40.1804 8.312C39.8444 8.68 39.6764 9.184 39.6764 9.824V17H34.3484V3.464H39.6764V5.528C40.0924 4.888 40.6444 4.368 41.3324 3.968C42.0364 3.568 42.8684 3.368 43.8284 3.368ZM60.5628 3.368C62.1148 3.368 63.3228 3.888 64.1868 4.928C65.0668 5.968 65.5068 7.376 65.5068 9.152V17H60.2028V9.824C60.2028 9.184 60.0268 8.68 59.6748 8.312C59.3388 7.928 58.8828 7.736 58.3068 7.736C57.7148 7.736 57.2508 7.928 56.9148 8.312C56.5788 8.68 56.4108 9.184 56.4108 9.824V17H51.0828V3.464H56.4108V5.528C56.8268 4.888 57.3788 4.368 58.0668 3.968C58.7708 3.568 59.6028 3.368 60.5628 3.368ZM83.1052 3.464L74.4412 23.48H68.6092L72.0172 16.328L66.3772 3.464H72.3052L74.8492 10.328L77.2252 3.464H83.1052ZM7.87625 32.48C7.87625 30.8 8.21225 29.304 8.88425 27.992C9.57225 26.68 10.5483 25.664 11.8123 24.944C13.0763 24.208 14.5643 23.84 16.2763 23.84C17.7483 23.84 19.0603 24.12 20.2123 24.68C21.3803 25.224 22.3243 26 23.0443 27.008C23.7803 28.016 24.2683 29.192 24.5083 30.536H18.8923C18.6363 29.976 18.2683 29.544 17.7883 29.24C17.3243 28.92 16.7883 28.76 16.1803 28.76C15.2843 28.76 14.5723 29.096 14.0443 29.768C13.5323 30.44 13.2763 31.344 13.2763 32.48C13.2763 33.616 13.5323 34.52 14.0443 35.192C14.5723 35.864 15.2843 36.2 16.1803 36.2C16.7883 36.2 17.3243 36.048 17.7883 35.744C18.2683 35.424 18.6363 34.984 18.8923 34.424H24.5083C24.2683 35.768 23.7803 36.944 23.0443 37.952C22.3243 38.96 21.3803 39.744 20.2123 40.304C19.0603 40.848 17.7483 41.12 16.2763 41.12C14.5643 41.12 13.0763 40.76 11.8123 40.04C10.5483 39.304 9.57225 38.28 8.88425 36.968C8.21225 35.656 7.87625 34.16 7.87625 32.48ZM25.7066 34.232C25.7066 32.808 25.9466 31.576 26.4266 30.536C26.9226 29.48 27.5946 28.68 28.4426 28.136C29.2906 27.576 30.2426 27.296 31.2986 27.296C32.1786 27.296 32.9386 27.48 33.5786 27.848C34.2186 28.2 34.7066 28.688 35.0426 29.312V27.464H40.3466V41H35.0426V39.152C34.7066 39.776 34.2186 40.272 33.5786 40.64C32.9386 40.992 32.1786 41.168 31.2986 41.168C30.2426 41.168 29.2906 40.896 28.4426 40.352C27.5946 39.792 26.9226 38.992 26.4266 37.952C25.9466 36.896 25.7066 35.656 25.7066 34.232ZM35.0426 34.232C35.0426 33.512 34.8586 32.952 34.4906 32.552C34.1226 32.152 33.6506 31.952 33.0746 31.952C32.4986 31.952 32.0266 32.152 31.6586 32.552C31.2906 32.952 31.1066 33.512 31.1066 34.232C31.1066 34.952 31.2906 35.512 31.6586 35.912C32.0266 36.312 32.4986 36.512 33.0746 36.512C33.6506 36.512 34.1226 36.312 34.4906 35.912C34.8586 35.512 35.0426 34.952 35.0426 34.232ZM48.0671 29.96C48.6111 29.176 49.2751 28.552 50.0591 28.088C50.8431 27.608 51.6591 27.368 52.5071 27.368V33.056H50.9951C49.9871 33.056 49.2431 33.232 48.7631 33.584C48.2991 33.936 48.0671 34.56 48.0671 35.456V41H42.7391V27.464H48.0671V29.96ZM60.8062 35.936L62.9662 27.464H68.6302L64.1182 41H57.4702L52.9582 27.464H58.6222L60.8062 35.936ZM69.3238 34.232C69.3238 32.808 69.5638 31.576 70.0438 30.536C70.5398 29.48 71.2118 28.68 72.0598 28.136C72.9078 27.576 73.8598 27.296 74.9158 27.296C75.7958 27.296 76.5558 27.48 77.1958 27.848C77.8358 28.2 78.3238 28.688 78.6598 29.312V27.464H83.9638V41H78.6598V39.152C78.3238 39.776 77.8358 40.272 77.1958 40.64C76.5558 40.992 75.7958 41.168 74.9158 41.168C73.8598 41.168 72.9078 40.896 72.0598 40.352C71.2118 39.792 70.5398 38.992 70.0438 37.952C69.5638 36.896 69.3238 35.656 69.3238 34.232ZM78.6598 34.232C78.6598 33.512 78.4758 32.952 78.1078 32.552C77.7398 32.152 77.2678 31.952 76.6918 31.952C76.1158 31.952 75.6438 32.152 75.2758 32.552C74.9078 32.952 74.7238 33.512 74.7238 34.232C74.7238 34.952 74.9078 35.512 75.2758 35.912C75.6438 36.312 76.1158 36.512 76.6918 36.512C77.2678 36.512 77.7398 36.312 78.1078 35.912C78.4758 35.512 78.6598 34.952 78.6598 34.232ZM88.9963 26.384C88.0683 26.384 87.3243 26.136 86.7643 25.64C86.2043 25.144 85.9243 24.52 85.9243 23.768C85.9243 23 86.2043 22.368 86.7643 21.872C87.3243 21.36 88.0683 21.104 88.9963 21.104C89.9083 21.104 90.6443 21.36 91.2043 21.872C91.7643 22.368 92.0443 23 92.0443 23.768C92.0443 24.52 91.7643 25.144 91.2043 25.64C90.6443 26.136 89.9083 26.384 88.9963 26.384ZM91.6843 41.936C91.6843 45.632 89.8283 47.48 86.1163 47.48H84.3402V42.944H85.3723C85.7243 42.944 85.9723 42.872 86.1163 42.728C86.2763 42.584 86.3563 42.352 86.3563 42.032V27.464H91.6843V41.936ZM93.3238 34.232C93.3238 32.808 93.5638 31.576 94.0438 30.536C94.5398 29.48 95.2118 28.68 96.0598 28.136C96.9078 27.576 97.8598 27.296 98.9158 27.296C99.7958 27.296 100.556 27.48 101.196 27.848C101.836 28.2 102.324 28.688 102.66 29.312V27.464H107.964V41H102.66V39.152C102.324 39.776 101.836 40.272 101.196 40.64C100.556 40.992 99.7958 41.168 98.9158 41.168C97.8598 41.168 96.9078 40.896 96.0598 40.352C95.2118 39.792 94.5398 38.992 94.0438 37.952C93.5638 36.896 93.3238 35.656 93.3238 34.232ZM102.66 34.232C102.66 33.512 102.476 32.952 102.108 32.552C101.74 32.152 101.268 31.952 100.692 31.952C100.116 31.952 99.6438 32.152 99.2758 32.552C98.9078 32.952 98.7238 33.512 98.7238 34.232C98.7238 34.952 98.9078 35.512 99.2758 35.912C99.6438 36.312 100.116 36.512 100.692 36.512C101.268 36.512 101.74 36.312 102.108 35.912C102.476 35.512 102.66 34.952 102.66 34.232ZM115.684 23.24V41H110.356V23.24H115.684Z" fill="#353841"/>
</svg>
