<svg width="51" height="40" viewBox="0 0 51 40" fill="none" xmlns="http://www.w3.org/2000/svg">
<rect width="50" height="40" transform="translate(0.0830078)" fill="#353841"/>
<path d="M44.9098 15.3667C45.2206 15.1083 45.6828 15.35 45.6828 15.7583V32.8C45.6828 35.0083 43.9695 36.8 41.8578 36.8H8.70781C6.59609 36.8 4.88281 35.0083 4.88281 32.8V15.7667C4.88281 15.35 5.33703 15.1167 5.65578 15.375C7.44078 16.825 9.8075 18.6667 17.9356 24.8417C19.617 26.125 22.4539 28.825 25.2828 28.8083C28.1277 28.8333 31.0203 26.075 32.638 24.8417C40.7661 18.6667 43.1248 16.8167 44.9098 15.3667ZM25.2828 26.1333C27.1316 26.1667 29.7931 23.7 31.1319 22.6833C41.7064 14.6583 42.5112 13.9583 44.9497 11.9583C45.4119 11.5833 45.6828 11 45.6828 10.3833V8.79999C45.6828 6.59165 43.9695 4.79999 41.8578 4.79999H8.70781C6.59609 4.79999 4.88281 6.59165 4.88281 8.79999V10.3833C4.88281 11 5.15375 11.575 5.61594 11.9583C8.05437 13.95 8.85922 14.6583 19.4338 22.6833C20.7725 23.7 23.4341 26.1667 25.2828 26.1333Z" fill="#8FC1E3"/>
</svg>
