<svg width="20" height="31" viewBox="0 0 20 31" fill="none" xmlns="http://www.w3.org/2000/svg">
<g clip-path="url(#clip0_87:17)">
<path d="M5.00095 30.6442C7.76039 30.6442 9.99994 28.3561 9.99994 25.5368V20.4294H5.00095C2.2415 20.4294 0.00195312 22.7176 0.00195312 25.5368C0.00195312 28.3561 2.2415 30.6442 5.00095 30.6442Z" fill="#0ACF83"/>
<path d="M0.00195312 15.3222C0.00195312 12.5029 2.2415 10.2148 5.00095 10.2148H9.99994V20.4295H5.00095C2.2415 20.4295 0.00195312 18.1415 0.00195312 15.3222Z" fill="#A259FF"/>
<path d="M0.00244141 5.10736C0.00244141 2.2881 2.24199 0 5.00143 0H10.0004V10.2147H5.00143C2.24199 10.2147 0.00244141 7.92662 0.00244141 5.10736Z" fill="#F24E1E"/>
<path d="M10 0H14.999C17.7585 0 19.998 2.2881 19.998 5.10736C19.998 7.92662 17.7585 10.2147 14.999 10.2147H10V0Z" fill="#FF7262"/>
<path d="M19.998 15.3222C19.998 18.1415 17.7585 20.4295 14.999 20.4295C12.2396 20.4295 10 18.1415 10 15.3222C10 12.5029 12.2396 10.2148 14.999 10.2148C17.7585 10.2148 19.998 12.5029 19.998 15.3222Z" fill="#1ABCFE"/>
</g>
<defs>
<clipPath id="clip0_87:17">
<rect width="20" height="30.6442" fill="white"/>
</clipPath>
</defs>
</svg>
