<svg width="43" height="64" viewBox="0 0 43 64" fill="none" xmlns="http://www.w3.org/2000/svg">
<g clip-path="url(#clip0_123:20)">
<path d="M10.7522 64.0002C16.685 64.0002 21.5001 59.2215 21.5001 53.3335V42.6667H10.7522C4.81942 42.6667 0.00439453 47.4454 0.00439453 53.3335C0.00439453 59.2215 4.81942 64.0002 10.7522 64.0002Z" fill="white"/>
<path d="M0.00439453 31.9999C0.00439453 26.1119 4.81942 21.3333 10.7522 21.3333H21.5001V42.6665H10.7522C4.81942 42.6665 0.00439453 37.8879 0.00439453 31.9999Z" fill="white"/>
<path d="M0.00561523 10.6667C0.00561523 4.77867 4.82064 0 10.7534 0H21.5013V21.3333H10.7534C4.82064 21.3333 0.00561523 16.5547 0.00561523 10.6667Z" fill="white"/>
<path d="M21.5 0H32.2479C38.1807 0 42.9957 4.77867 42.9957 10.6667C42.9957 16.5547 38.1807 21.3333 32.2479 21.3333H21.5V0Z" fill="white"/>
<path d="M42.9957 31.9999C42.9957 37.8879 38.1807 42.6665 32.2479 42.6665C26.315 42.6665 21.5 37.8879 21.5 31.9999C21.5 26.1119 26.315 21.3333 32.2479 21.3333C38.1807 21.3333 42.9957 26.1119 42.9957 31.9999Z" fill="white"/>
</g>
<defs>
<clipPath id="clip0_123:20">
<rect width="43" height="64" fill="white"/>
</clipPath>
</defs>
</svg>
