<svg width="42" height="40" viewBox="0 0 42 40" fill="none" xmlns="http://www.w3.org/2000/svg">
<path d="M13.9365 32.2079C13.9365 32.3734 13.7433 32.5057 13.4997 32.5057C13.2224 32.5305 13.0292 32.3982 13.0292 32.2079C13.0292 32.0425 13.2224 31.9102 13.4661 31.9102C13.7181 31.8854 13.9365 32.0177 13.9365 32.2079ZM11.3239 31.8357C11.2651 32.0012 11.4331 32.1914 11.6851 32.241C11.9036 32.3237 12.1556 32.241 12.206 32.0756C12.2564 31.9102 12.0968 31.7199 11.8448 31.6455C11.6263 31.5876 11.3827 31.6703 11.3239 31.8357ZM15.037 31.6951C14.7933 31.753 14.6253 31.9102 14.6505 32.1004C14.6757 32.2658 14.8942 32.3734 15.1462 32.3155C15.3898 32.2576 15.5578 32.1004 15.5326 31.935C15.5074 31.7778 15.2806 31.6703 15.037 31.6951ZM20.5645 0C8.91297 0 0 8.70954 0 20.1817C0 29.3544 5.86357 37.2037 14.2389 39.9663C15.3142 40.1565 15.6922 39.5031 15.6922 38.9655C15.6922 38.4527 15.667 35.6239 15.667 33.887C15.667 33.887 9.78663 35.1277 8.55175 31.4222C8.55175 31.4222 7.59409 29.0153 6.2164 28.3949C6.2164 28.3949 4.29267 27.0964 6.35081 27.1212C6.35081 27.1212 8.44254 27.2866 9.59341 29.2551C11.4331 32.4478 14.5161 31.5297 15.7174 30.9838C15.9106 29.6604 16.4567 28.7423 17.0615 28.1964C12.3656 27.6836 7.62769 27.0136 7.62769 19.0568C7.62769 16.7822 8.26613 15.6408 9.61021 14.1851C9.3918 13.6474 8.67775 11.4308 9.82863 8.56893C11.5843 8.03131 15.625 10.8021 15.625 10.8021C17.3051 10.339 19.1112 10.0991 20.9005 10.0991C22.6899 10.0991 24.496 10.339 26.1761 10.8021C26.1761 10.8021 30.2167 8.02304 31.9724 8.56893C33.1233 11.439 32.4093 13.6474 32.1909 14.1851C33.5349 15.6491 34.3582 16.7905 34.3582 19.0568C34.3582 27.0385 29.4103 27.6753 24.7144 28.1964C25.4872 28.8498 26.1425 30.0905 26.1425 32.0342C26.1425 34.8216 26.1173 38.2707 26.1173 38.9489C26.1173 39.4866 26.5037 40.14 27.5706 39.9498C35.9711 37.2037 41.6667 29.3544 41.6667 20.1817C41.6667 8.70954 32.2161 0 20.5645 0ZM8.16532 28.5273C8.05612 28.61 8.08132 28.8002 8.22413 28.9574C8.35853 29.0897 8.55175 29.1476 8.66095 29.0401C8.77016 28.9574 8.74496 28.7671 8.60215 28.61C8.46774 28.4776 8.27453 28.4197 8.16532 28.5273ZM7.25806 27.8573C7.19926 27.9648 7.28327 28.0972 7.45128 28.1799C7.58568 28.2626 7.7537 28.2378 7.8125 28.122C7.8713 28.0145 7.7873 27.8821 7.61929 27.7994C7.45128 27.7498 7.31687 27.7746 7.25806 27.8573ZM9.97984 30.8018C9.84543 30.9094 9.89583 31.1575 10.089 31.3147C10.2823 31.5049 10.5259 31.5297 10.6351 31.3974C10.7443 31.2898 10.6939 31.0417 10.5259 30.8846C10.3411 30.6943 10.089 30.6695 9.97984 30.8018ZM9.02218 29.586C8.88777 29.6687 8.88777 29.8837 9.02218 30.074C9.15659 30.2642 9.3834 30.3469 9.49261 30.2642C9.62702 30.1567 9.62702 29.9416 9.49261 29.7514C9.375 29.5612 9.15659 29.4785 9.02218 29.586Z" fill="#8FC1E3"/>
</svg>
