<svg width="60" height="52" viewBox="0 0 60 52" fill="none" xmlns="http://www.w3.org/2000/svg">
<path d="M49.0078 16.8512C48.375 16.6423 47.7422 16.445 47.1094 16.2593C47.2148 15.8298 47.3086 15.4004 47.4023 14.971C48.8438 8.05347 47.8945 2.49395 44.6953 0.66012C41.6133 -1.09246 36.5859 0.72976 31.5 5.11702C30.9961 5.54647 30.5039 5.99912 30.0352 6.45178C29.7187 6.15001 29.3906 5.84824 29.0625 5.55807C23.7305 0.869038 18.3867 -1.10407 15.1875 0.741366C12.1172 2.50556 11.2031 7.7401 12.4922 14.2862C12.6211 14.9361 12.7617 15.5745 12.9258 16.2245C12.1758 16.4334 11.4375 16.6655 10.7461 16.9093C4.48828 19.0565 0 22.4456 0 25.9507C0 29.572 4.78125 33.2048 11.2852 35.41C11.8125 35.5841 12.3398 35.7582 12.8789 35.9091C12.7031 36.6055 12.5508 37.2903 12.4102 37.9983C11.1797 44.4399 12.1406 49.5468 15.2109 51.2994C18.375 53.11 23.6953 51.253 28.875 46.7612C29.2852 46.4014 29.6953 46.03 30.1055 45.6354C30.6211 46.1345 31.1602 46.6103 31.6992 47.0746C36.7148 51.3458 41.6719 53.0752 44.7305 51.3226C47.8945 49.512 48.9258 44.0221 47.5898 37.3367C47.4844 36.826 47.3672 36.3038 47.2383 35.7699C47.6133 35.6654 47.9766 35.5493 48.3398 35.4333C55.1016 33.2164 60 29.63 60 25.9507C60 22.434 55.3828 19.0216 49.0078 16.8512ZM33.1523 6.99728C37.5117 3.23677 41.5781 1.76274 43.4297 2.81893C45.4102 3.94477 46.1719 8.49452 44.9297 14.4719C44.8477 14.8665 44.7656 15.2495 44.6602 15.6325C42.0586 15.0522 39.4219 14.6344 36.7734 14.4022C35.25 12.2434 33.5859 10.1775 31.7813 8.23918C32.2383 7.80974 32.6836 7.40351 33.1523 6.99728ZM19.5938 31.9745C20.1914 32.9843 20.8008 33.9941 21.4453 34.9806C19.6172 34.7833 17.8008 34.4931 16.0078 34.1101C16.5234 32.4388 17.168 30.7094 17.918 28.9452C18.457 29.9666 19.0078 30.9764 19.5938 31.9745ZM16.043 18.0119C17.7305 17.6405 19.5234 17.3387 21.3867 17.1066C20.7656 18.0699 20.1562 19.0565 19.582 20.0546C19.0078 21.0412 18.4453 22.0509 17.918 23.0723C17.1797 21.3429 16.5586 19.6484 16.043 18.0119ZM19.2539 26.0088C20.0273 24.4071 20.8711 22.8402 21.7617 21.2965C22.6523 19.7528 23.6133 18.2556 24.6211 16.7816C26.3789 16.6539 28.1719 16.5843 30 16.5843C31.8281 16.5843 33.6328 16.6539 35.3789 16.7816C36.375 18.244 37.3242 19.7412 38.2266 21.2733C39.1289 22.8054 39.9727 24.3722 40.7695 25.9623C39.9844 27.564 39.1406 29.1425 38.2383 30.6978C37.3477 32.2415 36.3984 33.7387 35.4023 35.2243C33.6562 35.352 31.8398 35.41 30 35.41C28.1602 35.41 26.3789 35.352 24.6562 35.2476C23.6367 33.7735 22.6758 32.2647 21.7734 30.721C20.8711 29.1773 20.0391 27.6105 19.2539 26.0088ZM40.418 31.9513C41.0156 30.9299 41.5781 29.897 42.1289 28.8524C42.8789 30.5353 43.5352 32.2415 44.1094 33.9941C42.293 34.4003 40.4531 34.7137 38.6016 34.9226C39.2344 33.9476 39.832 32.9495 40.418 31.9513ZM42.1055 23.0723C41.5547 22.0509 40.9922 21.0296 40.4062 20.0314C39.832 19.0449 39.2344 18.0699 38.6133 17.1066C40.5 17.3387 42.3047 17.6521 43.9922 18.0351C43.4531 19.7528 42.8203 21.4242 42.1055 23.0723ZM30.0234 10.015C31.2539 11.3381 32.4141 12.7309 33.4922 14.1701C31.1719 14.0657 28.8398 14.0657 26.5195 14.1701C27.668 12.6729 28.8516 11.2801 30.0234 10.015ZM16.4297 2.90018C18.3984 1.76274 22.7695 3.38765 27.375 7.42672C27.668 7.68207 27.9609 7.96062 28.2656 8.23918C26.4492 10.1775 24.7734 12.2434 23.2383 14.4022C20.5898 14.6344 17.9648 15.0406 15.3633 15.6093C15.2109 15.0174 15.082 14.4138 14.9531 13.8103C13.8516 8.19275 14.5781 3.95637 16.4297 2.90018ZM13.5586 33.495C13.0664 33.3557 12.5859 33.2048 12.1055 33.0423C9.60938 32.2647 6.77344 31.0344 4.72266 29.4211C3.53906 28.6086 2.74219 27.3551 2.51953 25.9507C2.51953 23.8267 6.22266 21.1108 11.5664 19.2654C12.2344 19.0332 12.9141 18.8243 13.5938 18.627C14.3906 21.1456 15.3516 23.6178 16.4648 26.0088C15.3398 28.4345 14.3672 30.9415 13.5586 33.495ZM27.2227 44.8694C25.2891 46.6219 23.0508 48.0147 20.6133 48.9665C19.3125 49.5816 17.8125 49.6396 16.4766 49.1174C14.6133 48.0496 13.8398 43.9524 14.8945 38.4394C15.0234 37.7894 15.1641 37.1394 15.3281 36.5011C17.9531 37.0582 20.6016 37.4412 23.2852 37.6385C24.832 39.8089 26.5312 41.8865 28.3477 43.8364C27.9727 44.1962 27.5977 44.5444 27.2227 44.8694ZM30.0937 42.049C28.8984 40.7723 27.7031 39.3563 26.543 37.8358C27.668 37.8822 28.8281 37.9055 30 37.9055C31.207 37.9055 32.3906 37.8822 33.5625 37.8242C32.4844 39.2982 31.3242 40.7026 30.0937 42.049ZM45.4102 45.5309C45.3047 46.9469 44.6016 48.2701 43.4766 49.1638C41.6133 50.2316 37.6406 48.8388 33.3516 45.1943C32.8594 44.7765 32.3672 44.3239 31.8633 43.8596C33.6562 41.8981 35.3086 39.8205 36.8086 37.6385C39.4922 37.418 42.1641 37.0117 44.8008 36.4198C44.918 36.8957 45.0234 37.3716 45.1172 37.8358C45.6914 40.3428 45.7852 42.9543 45.4102 45.5309ZM47.543 33.0539C47.2148 33.1584 46.8867 33.2628 46.5469 33.3557C45.7266 30.8255 44.7188 28.3533 43.5586 25.9507C44.6836 23.583 45.6328 21.1456 46.4297 18.6502C47.0391 18.8243 47.625 19.01 48.1875 19.1957C53.6484 21.0528 57.4805 23.8151 57.4805 25.9275C57.4805 28.2024 53.3906 31.1388 47.543 33.0539ZM30 31.3129C32.9648 31.3129 35.3672 28.9336 35.3672 25.9972C35.3672 23.0607 32.9648 20.6814 30 20.6814C27.0352 20.6814 24.6328 23.0607 24.6328 25.9972C24.6328 28.9336 27.0352 31.3129 30 31.3129Z" fill="white"/>
</svg>
