<svg width="37" height="40" viewBox="0 0 37 40" fill="none" xmlns="http://www.w3.org/2000/svg">
<path d="M15.214 23.3036C15.214 25.0268 14.072 25.5714 12.6689 25.5714H8.98974V20.8482H12.7423C14.2596 20.8571 15.214 21.5446 15.214 23.3036ZM14.5859 15.9554C14.5859 14.375 13.4683 14 12.2283 14H8.9979V18H12.4812C13.713 18 14.5859 17.4107 14.5859 15.9554ZM25.3785 18.0268C23.8856 18.0268 22.8904 19.0446 22.7925 20.6786H27.8666C27.7279 19.0268 26.9448 18.0268 25.3785 18.0268ZM36.5463 4.28571V35.7143C36.5463 38.0804 34.7924 40 32.6307 40H3.91568C1.7539 40 0 38.0804 0 35.7143V4.28571C0 1.91964 1.7539 0 3.91568 0H32.6307C34.7924 0 36.5463 1.91964 36.5463 4.28571ZM22.1644 13.6607H28.511V11.9732H22.1644V13.6607ZM18.6566 23.5089C18.6566 21.3571 17.7266 19.5 15.8014 18.9018C17.2045 18.1696 17.9387 17.3214 17.9387 15.5982C17.9387 12.1875 15.6138 11.3571 12.9299 11.3571H5.54721V28.5H13.142C15.989 28.4821 18.6566 26.9911 18.6566 23.5089ZM30.9991 22.1875C30.9991 18.5179 29.0331 15.4554 25.4845 15.4554C22.0257 15.4554 19.6844 18.2946 19.6844 22.0268C19.6844 25.8929 21.9115 28.5446 25.4845 28.5446C28.1929 28.5446 29.9468 27.2143 30.7952 24.3661H28.046C27.7442 25.4286 26.5287 25.9821 25.5824 25.9821C23.7551 25.9821 22.8007 24.8125 22.8007 22.8304H30.9746C30.9828 22.625 30.9991 22.4018 30.9991 22.1875Z" fill="url(#paint0_linear_388_332)"/>
<defs>
<linearGradient id="paint0_linear_388_332" x1="6.21555" y1="7.59103" x2="35.4474" y2="37.2497" gradientUnits="userSpaceOnUse">
<stop stop-color="white"/>
<stop offset="1" stop-color="#4DD5C0"/>
</linearGradient>
</defs>
</svg>
