<svg width="70" height="70" viewBox="0 0 70 70" fill="none" xmlns="http://www.w3.org/2000/svg">
<path d="M61.9048 0H7.42857C3.32738 0 0 3.32738 0 7.42857V61.9048C0 66.006 3.32738 69.3333 7.42857 69.3333H61.9048C66.006 69.3333 69.3333 66.006 69.3333 61.9048V7.42857C69.3333 3.32738 66.006 0 61.9048 0ZM42.9155 59.3821C41.6155 59.6143 41.1357 58.8095 41.1357 58.1441C41.1357 57.3083 41.1667 53.0369 41.1667 49.5857C41.1667 47.1714 40.3619 45.6393 39.4179 44.8345C45.1441 44.2 51.1798 43.4107 51.1798 33.5214C51.1798 30.7048 50.1738 29.2964 48.5333 27.4857C48.7964 26.8202 49.6786 24.081 48.2702 20.5214C46.119 19.856 41.1976 23.2917 41.1976 23.2917C39.1548 22.719 36.9417 22.425 34.7595 22.425C32.5774 22.425 30.3643 22.719 28.3214 23.2917C28.3214 23.2917 23.4 19.856 21.2488 20.5214C19.8405 24.0655 20.7071 26.8048 20.9857 27.4857C19.3452 29.2964 18.5714 30.7048 18.5714 33.5214C18.5714 43.3643 24.344 44.2 30.0702 44.8345C29.3274 45.5 28.6619 46.6452 28.4298 48.2857C26.9595 48.9512 23.1988 50.0964 20.9548 46.1345C19.5464 43.6893 17.0083 43.4881 17.0083 43.4881C14.5012 43.4571 16.8381 45.0667 16.8381 45.0667C18.5095 45.8405 19.6857 48.8119 19.6857 48.8119C21.1869 53.4083 28.3679 51.8607 28.3679 51.8607C28.3679 54.0119 28.3988 57.5095 28.3988 58.1441C28.3988 58.8095 27.9345 59.6143 26.619 59.3821C16.4048 55.9619 9.25476 46.2429 9.25476 34.8833C9.25476 20.6762 20.119 9.88929 34.3262 9.88929C48.5333 9.88929 60.0476 20.6762 60.0476 34.8833C60.0631 46.2429 53.1298 55.9774 42.9155 59.3821ZM27.7333 49.9262C27.4393 49.9881 27.1607 49.8643 27.1298 49.6631C27.0988 49.431 27.3 49.2298 27.594 49.1679C27.8881 49.1369 28.1667 49.2607 28.1976 49.4619C28.244 49.6631 28.0429 49.8643 27.7333 49.9262ZM26.2631 49.7869C26.2631 49.9881 26.031 50.1583 25.7214 50.1583C25.381 50.1893 25.1488 50.0191 25.1488 49.7869C25.1488 49.5857 25.381 49.4155 25.6905 49.4155C25.9845 49.3845 26.2631 49.5548 26.2631 49.7869ZM24.1429 49.6167C24.081 49.8179 23.7714 49.9107 23.5083 49.8179C23.2143 49.756 23.0131 49.5238 23.075 49.3226C23.1369 49.1214 23.4464 49.0286 23.7095 49.0905C24.019 49.1833 24.2202 49.4155 24.1429 49.6167ZM22.2393 48.781C22.1 48.9512 21.806 48.9202 21.5738 48.6881C21.3417 48.4869 21.2798 48.1929 21.4345 48.0536C21.5738 47.8833 21.8679 47.9143 22.1 48.1464C22.3012 48.3476 22.3786 48.6571 22.2393 48.781ZM20.831 47.3726C20.6917 47.4655 20.4286 47.3726 20.2583 47.1405C20.0881 46.9083 20.0881 46.6452 20.2583 46.5369C20.4286 46.3976 20.6917 46.506 20.831 46.7381C21.0012 46.9702 21.0012 47.2488 20.831 47.3726ZM19.825 45.8714C19.6857 46.0107 19.4536 45.9333 19.2833 45.7786C19.1131 45.5774 19.0821 45.3452 19.2214 45.2369C19.3607 45.0976 19.5929 45.175 19.7631 45.3298C19.9333 45.531 19.9643 45.7631 19.825 45.8714ZM18.7881 44.7262C18.7262 44.8655 18.525 44.8964 18.3548 44.7881C18.1536 44.6952 18.0607 44.525 18.1226 44.3857C18.1845 44.2929 18.3548 44.2464 18.556 44.3238C18.7571 44.4321 18.85 44.6024 18.7881 44.7262Z" fill="#232930"/>
</svg>
