<svg width="70" height="71" viewBox="0 0 70 71" fill="none" xmlns="http://www.w3.org/2000/svg">
<path d="M0 0V70.3333H69.3333V0H0ZM37.731 54.8537C37.731 61.6987 33.769 64.8228 27.9964 64.8228C22.781 64.8228 19.7631 62.0911 18.2155 58.7786L23.5238 55.5288C24.5452 57.3656 25.4738 58.9199 27.7179 58.9199C29.8536 58.9199 31.2155 58.0721 31.2155 54.7595V32.2937H37.731V54.8537ZM53.1452 64.8228C47.094 64.8228 43.1786 61.9028 41.275 58.0721L46.5833 54.9636C47.9762 57.2714 49.8024 58.9827 53.006 58.9827C55.6988 58.9827 57.4321 57.6168 57.4321 55.7172C57.4321 53.4565 55.6679 52.6558 52.681 51.3214L51.056 50.6149C46.3512 48.5897 43.2405 46.0307 43.2405 40.6458C43.2405 35.6847 46.9702 31.9169 52.7738 31.9169C56.9214 31.9169 59.8929 33.3769 62.0286 37.2076L56.9524 40.5045C55.8381 38.4792 54.631 37.6786 52.7583 37.6786C50.8548 37.6786 49.6476 38.9031 49.6476 40.5045C49.6476 42.4826 50.8548 43.2833 53.656 44.5235L55.281 45.23C60.8214 47.632 63.9321 50.0968 63.9321 55.623C63.9321 61.5574 59.3202 64.8228 53.1452 64.8228Z" fill="#F0DB4F"/>
</svg>
