<svg width="80" height="70" viewBox="0 0 80 70" fill="none" xmlns="http://www.w3.org/2000/svg">
<path d="M64.718 22.4683C63.8823 22.1897 63.0466 21.9267 62.211 21.6791C62.3502 21.1065 62.474 20.5339 62.5978 19.9613C64.5013 10.738 63.2478 3.32527 59.023 0.880161C54.953 -1.45662 48.3141 0.973013 41.5978 6.8227C40.9323 7.39529 40.2824 7.99883 39.6634 8.60237C39.2455 8.20001 38.8122 7.79765 38.3789 7.41076C31.3376 1.15872 24.2808 -1.47209 20.0561 0.988488C16.0015 3.34074 14.7944 10.3201 16.4967 19.0482C16.667 19.9149 16.8527 20.766 17.0693 21.6326C16.0789 21.9112 15.104 22.2207 14.1909 22.5457C5.92706 25.4086 0 29.9274 0 34.601C0 39.4293 6.31395 44.2731 14.9028 47.2134C15.5992 47.4455 16.2956 47.6777 17.0074 47.8788C16.7753 48.8074 16.5741 49.7204 16.3884 50.6644C14.7635 59.2532 16.0325 66.0624 20.087 68.3992C24.2654 70.8133 31.2912 68.3373 38.1313 62.3483C38.6729 61.8686 39.2146 61.3734 39.7562 60.8472C40.4371 61.5126 41.149 62.1471 41.8609 62.7661C48.4843 68.4611 55.0304 70.7669 59.0695 68.4301C63.2478 66.016 64.6096 58.6961 62.8455 49.7823C62.7062 49.1014 62.5514 48.405 62.3812 47.6931C62.8764 47.5539 63.3561 47.3991 63.8359 47.2443C72.7652 44.2886 79.2339 39.5067 79.2339 34.601C79.2339 29.9119 73.1366 25.3622 64.718 22.4683ZM43.7798 9.32971C49.5366 4.31569 54.9066 2.35032 57.3517 3.75858C59.967 5.25969 60.9729 11.326 59.3325 19.2958C59.2242 19.822 59.1159 20.3327 58.9766 20.8434C55.5411 20.0696 52.0591 19.5125 48.5617 19.203C46.5499 16.3246 44.3524 13.57 41.9692 10.9856C42.5727 10.413 43.1608 9.87135 43.7798 9.32971ZM25.8748 42.6327C26.6641 43.979 27.4688 45.3254 28.3199 46.6408C25.9058 46.3777 23.5071 45.9908 21.1393 45.4802C21.8203 43.2517 22.6714 40.9459 23.6618 38.5936C24.3737 39.9555 25.101 41.3018 25.8748 42.6327ZM21.1858 24.0158C23.4142 23.5206 25.782 23.1183 28.2425 22.8088C27.4223 24.0932 26.6176 25.4086 25.8593 26.7395C25.101 28.0549 24.3582 29.4013 23.6618 30.7631C22.6869 28.4573 21.8667 26.1979 21.1858 24.0158ZM25.426 34.6784C26.4474 32.5428 27.5616 30.4536 28.7378 28.3954C29.9139 26.3371 31.1829 24.3408 32.5137 22.3754C34.835 22.2052 37.2028 22.1124 39.6169 22.1124C42.0311 22.1124 44.4143 22.2052 46.7201 22.3754C48.0355 24.3253 49.289 26.3217 50.4806 28.3644C51.6722 30.4072 52.7865 32.4963 53.8388 34.6165C52.8019 36.7521 51.6877 38.8567 50.4961 40.9304C49.32 42.9886 48.0665 44.9849 46.7511 46.9658C44.4452 47.136 42.0466 47.2134 39.6169 47.2134C37.1873 47.2134 34.835 47.136 32.5602 46.9967C31.2138 45.0314 29.9448 43.0196 28.7532 40.9614C27.5616 38.9031 26.4629 36.814 25.426 34.6784ZM53.3745 42.6017C54.1638 41.2399 54.9066 39.8626 55.6339 38.4698C56.6244 40.7137 57.491 42.9886 58.2493 45.3254C55.8506 45.867 53.421 46.2849 50.9758 46.5634C51.8115 45.2635 52.6008 43.9326 53.3745 42.6017ZM55.603 30.7631C54.8756 29.4013 54.1328 28.0394 53.3591 26.7085C52.6008 25.3931 51.8115 24.0932 50.9913 22.8088C53.4829 23.1183 55.8661 23.5361 58.0945 24.0468C57.3826 26.3371 56.547 28.5656 55.603 30.7631ZM39.6479 13.3533C41.2728 15.1175 42.8049 16.9745 44.2286 18.8935C41.1645 18.7542 38.0849 18.7542 35.0207 18.8935C36.5373 16.8972 38.1003 15.0401 39.6479 13.3533ZM21.6965 3.86691C24.2963 2.35032 30.0686 4.51687 36.1505 9.9023C36.5373 10.2428 36.9242 10.6142 37.3266 10.9856C34.9279 13.57 32.7149 16.3246 30.6876 19.203C27.1902 19.5125 23.7237 20.0541 20.2882 20.8124C20.087 20.0232 19.9168 19.2185 19.7466 18.4137C18.2919 10.9237 19.2514 5.27516 21.6965 3.86691ZM17.905 44.66C17.255 44.4743 16.6205 44.2731 15.9861 44.0564C12.6898 43.0196 8.94476 41.3792 6.23657 39.2281C4.67356 38.1448 3.62124 36.4735 3.3272 34.601C3.3272 31.769 8.21742 28.1478 15.2742 25.6872C16.1563 25.3777 17.0539 25.0991 17.9514 24.836C19.0037 28.1942 20.2727 31.4904 21.7429 34.6784C20.2573 37.9127 18.9728 41.2554 17.905 44.66ZM35.9493 59.8258C33.3958 62.1626 30.44 64.0196 27.2212 65.2886C25.5034 66.1088 23.5226 66.1862 21.7584 65.4898C19.2978 64.0661 18.2764 58.6033 19.6692 51.2525C19.8394 50.3858 20.0251 49.5192 20.2418 48.6681C23.7083 49.4109 27.2057 49.9216 30.7495 50.1847C32.7923 53.0786 35.0362 55.8487 37.4349 58.4485C36.9397 58.9283 36.4445 59.3925 35.9493 59.8258ZM39.7407 56.0653C38.1622 54.363 36.5838 52.475 35.0517 50.4478C36.5373 50.5097 38.0694 50.5406 39.6169 50.5406C41.2109 50.5406 42.7739 50.5097 44.3214 50.4323C42.8977 52.3976 41.3656 54.2702 39.7407 56.0653ZM59.967 60.7079C59.8278 62.5959 58.8992 64.3601 57.4136 65.5517C54.953 66.9754 49.7069 65.1184 44.0429 60.2591C43.3929 59.702 42.743 59.0985 42.0775 58.4795C44.4452 55.8641 46.6273 53.094 48.6081 50.1847C52.152 49.8906 55.6804 49.349 59.1623 48.5598C59.3171 49.1942 59.4563 49.8287 59.5802 50.4478C60.3384 53.7904 60.4622 57.2724 59.967 60.7079ZM62.7836 44.0719C62.3502 44.2112 61.9169 44.3505 61.4681 44.4743C60.3849 41.1006 59.054 37.8044 57.5219 34.601C59.0076 31.444 60.2611 28.1942 61.3134 24.867C62.1181 25.0991 62.8919 25.3467 63.6347 25.5943C70.8462 28.0704 75.9067 31.7535 75.9067 34.57C75.9067 37.6032 70.5058 41.5185 62.7836 44.0719ZM39.6169 41.7506C43.5322 41.7506 46.7046 38.5781 46.7046 34.6629C46.7046 30.7476 43.5322 27.5752 39.6169 27.5752C35.7017 27.5752 32.5292 30.7476 32.5292 34.6629C32.5292 38.5781 35.7017 41.7506 39.6169 41.7506Z" fill="#2FD0FF"/>
</svg>
