<svg width="86" height="64" viewBox="0 0 86 64" fill="none" xmlns="http://www.w3.org/2000/svg">
<path d="M40.2416 48.3848C40.2016 48.4648 40.1616 48.5288 40.2416 48.3848V48.3848ZM73.4562 36.7858C70.7747 36.7849 68.129 37.4007 65.7235 38.5856C64.9369 36.9991 64.1236 35.6125 63.9903 34.5726C63.8303 33.3594 63.657 32.6394 63.8437 31.1996C64.0303 29.7597 64.8702 27.7198 64.8569 27.5732C64.8436 27.4265 64.6703 26.6933 62.9504 26.6799C61.2305 26.6666 59.7507 27.0132 59.5787 27.4665C59.2749 28.2949 59.0386 29.1465 58.8721 30.013C58.5654 31.5729 55.4337 37.1457 53.6605 40.0522C53.0739 38.9189 52.5806 37.919 52.4739 37.1191C52.3139 35.9058 52.1406 35.1859 52.3273 33.746C52.5139 32.3061 53.3538 30.2663 53.3405 30.1196C53.3272 29.973 53.1539 29.2397 51.4353 29.2264C49.7168 29.2131 48.2356 29.5597 48.0623 30.013C47.889 30.4663 47.7023 31.5329 47.3557 32.5594C47.009 33.586 42.8374 42.8653 41.7455 45.2784C41.1855 46.505 40.7055 47.4916 40.3589 48.1582C40.3056 48.2648 40.2656 48.3315 40.2389 48.3848C40.2789 48.3182 40.3056 48.2515 40.3056 48.2782C40.0123 48.8515 39.8389 49.1714 39.8389 49.1714V49.1848C39.6123 49.6114 39.359 49.998 39.239 49.998C39.159 49.998 38.9857 48.8781 39.279 47.3449C39.9056 44.1185 41.3855 39.1056 41.3722 38.9323C41.3588 38.8389 41.6521 37.9723 40.3989 37.5057C39.1857 37.0657 38.7457 37.799 38.639 37.799C38.5324 37.799 38.4524 38.0657 38.4524 38.0657C38.4524 38.0657 39.7989 32.4128 35.8673 32.4128C33.4141 32.4128 30.0011 35.1059 28.3239 37.5457C27.2706 38.119 24.9908 39.3589 22.591 40.6788C21.6711 41.1854 20.7245 41.7054 19.8312 42.1987C19.7646 42.132 19.7113 42.0653 19.6446 41.9987C14.873 36.9058 6.06303 33.3061 6.43633 26.4666C6.56966 23.9735 7.43625 17.4273 23.3776 9.48133C36.4432 2.97519 46.889 4.76171 48.6876 8.73472C51.274 14.4009 43.1027 24.9467 29.5344 26.4666C24.3629 27.0399 21.6444 25.0401 20.9645 24.2935C20.2579 23.5069 20.1512 23.4669 19.8846 23.6135C19.4446 23.8535 19.7246 24.5468 19.8846 24.9601C20.2845 26.0133 21.9511 27.8798 24.7895 28.8131C27.2826 29.6264 33.3461 30.0796 40.6775 27.2399C48.9142 24.0668 55.3257 15.2275 53.4458 7.82813C51.5313 0.308743 39.063 -2.15772 27.2733 2.0286C20.2485 4.52173 12.6518 8.44141 7.18694 13.5477C0.695468 19.6272 -0.343114 24.9201 0.0835181 27.1332C1.60206 34.9859 12.4252 40.1055 16.7568 43.8919C16.5435 44.0118 16.3435 44.1185 16.1569 44.2252C13.9851 45.3051 5.73372 49.6247 3.66856 54.1844C1.33542 59.3573 4.05519 63.0636 5.84038 63.5703C11.4119 65.1168 17.1168 62.3304 20.1819 57.7574C23.247 53.1844 22.875 47.2116 21.4618 44.4918C21.4484 44.4518 21.4218 44.4251 21.4084 44.3852C21.9684 44.0518 22.5417 43.7185 23.115 43.3852C24.2202 42.732 25.3001 42.132 26.2467 41.612C25.7134 43.0519 25.3268 44.7851 25.1268 47.2916C24.8868 50.2247 26.1001 54.0244 27.6733 55.5176C28.3665 56.1709 29.2051 56.1842 29.7251 56.1842C31.565 56.1842 32.3916 54.6643 33.3101 52.8511C34.4434 50.638 35.4433 48.0648 35.4433 48.0648C35.4433 48.0648 34.1901 55.0243 37.6165 55.0243C38.8684 55.0243 40.1216 53.4111 40.6829 52.5845V52.5978C40.6829 52.5978 40.7095 52.5445 40.7762 52.4378C40.9095 52.2378 40.9762 52.1179 40.9762 52.1179V52.0779C41.4828 51.2113 42.5894 49.2248 44.2546 45.945C46.4144 41.7054 48.4796 36.4125 48.4796 36.4125C48.6791 37.576 48.9553 38.725 49.3062 39.8522C49.6795 41.1188 50.4661 42.5053 51.0927 43.8519C50.5861 44.5451 50.2794 44.9451 50.2794 44.9451C50.2804 44.9553 50.2852 44.9648 50.2928 44.9718C49.8928 45.5051 49.4395 46.0783 48.9729 46.6383C47.2677 48.6648 45.2398 50.9846 44.9732 51.6512C44.6532 52.4378 44.7332 53.0244 45.3465 53.4777C45.7998 53.8244 46.5997 53.8777 47.4383 53.811C48.9715 53.7044 50.0514 53.3311 50.5714 53.0911C51.53 52.7474 52.4359 52.2717 53.2632 51.6779C54.9297 50.4513 55.943 48.6915 55.8496 46.3717C55.7963 45.0918 55.383 43.8119 54.8764 42.612C55.023 42.3986 55.183 42.172 55.3297 41.9453C57.9681 38.0923 60.008 33.8633 60.008 33.8633C60.2075 35.0268 60.4837 36.1759 60.8346 37.3031C61.1545 38.383 61.7798 39.5695 62.3531 40.7294C59.8746 42.7426 58.3414 45.0758 57.8081 46.609C56.8216 49.4487 57.5948 50.7286 59.048 51.0219C59.7013 51.1553 60.6346 50.8486 61.3279 50.5553C62.3575 50.2124 63.3283 49.7132 64.2063 49.0754C65.8728 47.8489 67.4847 46.129 67.378 43.7959C67.338 42.7426 67.0447 41.6894 66.6581 40.6761C68.7513 39.7962 71.4697 39.3162 74.9361 39.7162C82.3595 40.5828 83.8127 45.2224 83.5327 47.1556C83.2527 49.0888 81.6929 50.1687 81.1729 50.4887C80.6529 50.8086 80.493 50.9286 80.533 51.1686C80.5996 51.5152 80.8396 51.5019 81.2796 51.4219C81.8929 51.3153 85.1713 49.8487 85.3179 46.2623C85.5312 41.7294 81.1729 36.7431 73.4522 36.7831L73.4562 36.7858ZM16.2369 56.0775C13.7851 58.7573 10.3453 59.7706 8.8668 58.9173C7.28026 57.9947 7.90688 54.051 10.932 51.1953C12.7718 49.4621 15.1436 47.8622 16.7168 46.8756C17.0768 46.6623 17.5968 46.3423 18.2367 45.9557C18.3434 45.889 18.3967 45.8624 18.3967 45.8624C18.5167 45.7824 18.65 45.7157 18.7833 45.6357C19.8886 49.6887 18.8233 53.2618 16.2369 56.0749V56.0775ZM34.1501 43.8919C33.2968 45.985 31.4983 51.3179 30.405 51.0379C29.4718 50.798 28.8985 46.7316 30.2184 42.7319C30.885 40.7188 32.2982 38.319 33.1382 37.3857C34.4834 35.8792 35.9633 35.3992 36.3099 35.9992C36.7765 36.7858 34.6834 42.5853 34.1501 43.8919ZM48.9489 50.9579C48.5889 51.1446 48.2556 51.2646 48.0956 51.1713C47.9756 51.1046 48.2423 50.8513 48.2423 50.8513C48.2423 50.8513 50.0954 48.8648 50.8287 47.9582C51.2553 47.4249 51.7486 46.7983 52.2806 46.105C52.2806 46.1717 52.2939 46.2383 52.2939 46.3183C52.2766 48.7048 49.9848 50.318 48.9449 50.9579H48.9489ZM60.3586 48.3582C60.092 48.1715 60.132 47.5449 61.0252 45.5984C61.3719 44.8384 62.1705 43.5585 63.5583 42.332C63.7154 42.7963 63.8009 43.2818 63.8117 43.7719C63.7983 46.7716 61.6518 47.8915 60.3599 48.3582H60.3586Z" fill="white"/>
</svg>
