<svg width="105" height="77" viewBox="0 0 105 77" fill="none" xmlns="http://www.w3.org/2000/svg">
<path d="M49.0805 57.5677C49.0317 57.6629 48.9829 57.739 49.0805 57.5677V57.5677ZM89.5906 43.7673C86.3202 43.7662 83.0933 44.4989 80.1595 45.9087C79.2001 44.0211 78.2082 42.3714 78.0456 41.1341C77.8504 39.6906 77.6391 38.834 77.8667 37.1209C78.0944 35.4077 79.1188 32.9807 79.1025 32.8063C79.0863 32.6318 78.8749 31.7593 76.7772 31.7435C74.6796 31.7276 72.8747 32.14 72.6649 32.6794C72.2945 33.665 72.0062 34.6782 71.8031 35.7091C71.4291 37.565 67.6095 44.1956 65.4468 47.6536C64.7314 46.3053 64.1297 45.1156 63.9996 44.1638C63.8045 42.7203 63.5931 41.8638 63.8208 40.1506C64.0484 38.4375 65.0728 36.0105 65.0566 35.836C65.0403 35.6615 64.8289 34.7891 62.7329 34.7732C60.6369 34.7573 58.8304 35.1698 58.619 35.7091C58.4076 36.2484 58.18 37.5174 57.7572 38.7388C57.3344 39.9603 52.2465 51.0006 50.9147 53.8717C50.2318 55.3311 49.6464 56.5049 49.2236 57.298C49.1586 57.4249 49.1098 57.5042 49.0773 57.5677C49.126 57.4884 49.1586 57.4091 49.1586 57.4408C48.8008 58.1229 48.5894 58.5036 48.5894 58.5036V58.5194C48.313 59.027 48.0041 59.4871 47.8577 59.4871C47.7601 59.4871 47.5488 58.1546 47.9065 56.3304C48.6707 52.4917 50.4757 46.5274 50.4594 46.3211C50.4431 46.2101 50.8009 45.179 49.2724 44.6238C47.7927 44.1004 47.2561 44.9728 47.126 44.9728C46.9959 44.9728 46.8983 45.2901 46.8983 45.2901C46.8983 45.2901 48.5407 38.5644 43.7454 38.5644C40.7534 38.5644 36.5907 41.7686 34.5451 44.6714C33.2605 45.3535 30.48 46.8287 27.5531 48.3991C26.4311 49.0019 25.2766 49.6205 24.1871 50.2075C24.1058 50.1282 24.0408 50.0488 23.9595 49.9695C18.1398 43.91 7.39476 39.6271 7.85005 31.4897C8.01266 28.5234 9.0696 20.7348 28.5124 11.2808C44.4479 3.53985 57.1881 5.66543 59.3816 10.3925C62.5362 17.1341 52.57 29.6813 36.0216 31.4897C29.7141 32.1717 26.3986 29.7924 25.5693 28.9041C24.7074 27.9682 24.5774 27.9206 24.2521 28.0951C23.7155 28.3806 24.057 29.2055 24.2521 29.6972C24.74 30.9503 26.7725 33.1711 30.2344 34.2815C33.2752 35.2491 40.6705 35.7884 49.6122 32.4097C59.658 28.6344 67.4778 18.1175 65.185 9.31382C62.85 0.367338 47.6431 -2.56723 33.2638 2.41361C24.6961 5.3799 15.4308 10.0435 8.76553 16.1188C0.848226 23.3522 -0.418478 29.6496 0.101863 32.2828C1.95395 41.6258 15.1543 47.717 20.4374 52.222C20.1772 52.3648 19.9333 52.4917 19.7057 52.6186C17.0568 53.9034 6.99312 59.0429 4.47435 64.4679C1.62874 70.6226 4.9459 75.0324 7.1232 75.6351C13.9185 77.4752 20.8764 74.1599 24.6148 68.7191C28.3531 63.2782 27.8994 56.1718 26.1758 52.9358C26.1595 52.8882 26.127 52.8565 26.1107 52.8089C26.7937 52.4124 27.4929 52.0158 28.1921 51.6192C29.5401 50.842 30.8572 50.1282 32.0117 49.5095C31.3613 51.2227 30.8897 53.2848 30.6458 56.267C30.3531 59.7567 31.8329 64.2775 33.7516 66.0542C34.5972 66.8314 35.62 66.8473 36.2541 66.8473C38.4981 66.8473 39.5063 65.0389 40.6266 62.8816C42.0088 60.2485 43.2283 57.187 43.2283 57.187C43.2283 57.187 41.6998 65.4672 45.8788 65.4672C47.4057 65.4672 48.9342 63.5479 49.6187 62.5644V62.5802C49.6187 62.5802 49.6513 62.5168 49.7326 62.3899C49.8952 62.152 49.9765 62.0092 49.9765 62.0092V61.9616C50.5944 60.9305 51.944 58.567 53.975 54.6648C56.6092 49.6206 59.128 43.3231 59.128 43.3231C59.3713 44.7074 59.7081 46.0746 60.1361 47.4157C60.5914 48.9226 61.5508 50.5723 62.315 52.1744C61.6971 52.9993 61.3231 53.4752 61.3231 53.4752C61.3243 53.4873 61.3301 53.4986 61.3394 53.5069C60.8516 54.1414 60.2987 54.8235 59.7296 55.4897C57.6499 57.9008 55.1766 60.6609 54.8514 61.454C54.4612 62.3899 54.5587 63.0879 55.3067 63.6272C55.8596 64.0396 56.8352 64.1031 57.858 64.0237C59.728 63.8968 61.0451 63.4527 61.6792 63.1672C62.8484 62.7582 63.9533 62.1923 64.9623 61.4857C66.9949 60.0264 68.2307 57.9325 68.1168 55.1724C68.0518 53.6496 67.5477 52.1268 66.9298 50.6992C67.1087 50.4454 67.3038 50.1757 67.4827 49.9061C70.7006 45.3218 73.1885 40.2902 73.1885 40.2902C73.4319 41.6745 73.7687 43.0417 74.1967 44.3827C74.5869 45.6676 75.3496 47.0794 76.0488 48.4594C73.0259 50.8547 71.1559 53.6306 70.5055 55.4548C69.3022 58.8335 70.2453 60.3563 72.0178 60.7053C72.8145 60.8639 73.9528 60.4991 74.7983 60.1501C76.0541 59.7421 77.2381 59.1482 78.309 58.3894C80.3416 56.93 82.3075 54.8837 82.1774 52.1078C82.1286 50.8547 81.7709 49.6015 81.2993 48.396C83.8522 47.349 87.1678 46.778 91.3956 47.2539C100.449 48.2849 102.222 53.8051 101.88 56.1052C101.539 58.4052 99.6364 59.6901 99.0023 60.0708C98.3681 60.4515 98.173 60.5943 98.2218 60.8798C98.3031 61.2922 98.5958 61.2764 99.1324 61.1812C99.8804 61.0543 103.879 59.3094 104.058 55.0424C104.318 49.6491 99.0023 43.7165 89.5857 43.7641L89.5906 43.7673ZM19.8032 66.7204C16.8129 69.9088 12.6177 71.1143 10.8144 70.0991C8.87935 69.0014 9.6436 64.3093 13.3331 60.9115C15.5771 58.8494 18.4699 56.9459 20.3886 55.772C20.8277 55.5182 21.4618 55.1375 22.2423 54.6775C22.3724 54.5982 22.4375 54.5665 22.4375 54.5665C22.5838 54.4713 22.7464 54.392 22.909 54.2968C24.257 59.119 22.9578 63.3702 19.8032 66.7172V66.7204ZM41.651 52.222C40.6103 54.7124 38.4168 61.0574 37.0834 60.7243C35.9452 60.4388 35.246 55.6007 36.8558 50.842C37.6688 48.4467 39.3924 45.5915 40.4168 44.4811C42.0575 42.6886 43.8625 42.1176 44.2853 42.8314C44.8544 43.7673 42.3015 50.6675 41.651 52.222ZM59.7003 60.6292C59.2613 60.8512 58.8548 60.994 58.6596 60.883C58.5133 60.8036 58.8385 60.5023 58.8385 60.5023C58.8385 60.5023 61.0987 58.1387 61.9931 57.0601C62.5134 56.4256 63.1151 55.68 63.7639 54.8552C63.7639 54.9345 63.7801 55.0138 63.7801 55.109C63.759 57.9484 60.9638 59.8678 59.6954 60.6292H59.7003ZM73.6162 57.536C73.291 57.3139 73.3397 56.5683 74.4292 54.2524C74.852 53.3482 75.826 51.8254 77.5187 50.3661C77.7103 50.9185 77.8145 51.4962 77.8277 52.0792C77.8114 55.6483 75.1935 56.9808 73.6178 57.536H73.6162Z" fill="#CD6799"/>
</svg>
